<?xml version="1.0" encoding="utf-8"?>
<!-- Generator: Adobe Illustrator 16.0.0, SVG Export Plug-In . SVG Version: 6.00 Build 0)  -->
<!DOCTYPE svg PUBLIC "-//W3C//DTD SVG 1.1//EN" "http://www.w3.org/Graphics/SVG/1.1/DTD/svg11.dtd">
<svg version="1.1" id="Layer_1" xmlns="http://www.w3.org/2000/svg" xmlns:xlink="http://www.w3.org/1999/xlink" x="0px" y="0px"
	 width="473.852px" height="81.5px" viewBox="0 0 473.852 81.5" enable-background="new 0 0 473.852 81.5" xml:space="preserve">
<g>
	<g>
		<g>
			<path fill-rule="evenodd" clip-rule="evenodd" fill="#F2F2F2" d="M83.959,54.564V28.715h22.638c2.438,0,3.967,0.02,4.589,0.058
				c1.817,0.109,3.295,0.413,4.432,0.911c1.664,0.716,2.801,1.931,3.422,3.636c0.437,1.182,0.65,2.802,0.65,4.852
				c0,4.59-1.108,7.517-3.333,8.763c-1.012,0.569-2.385,0.937-4.137,1.105c-1.198,0.109-2.816,0.167-4.847,0.167H92.914v6.356
				H83.959L83.959,54.564z M92.914,41.93h13.078c1.663,0,2.808-0.163,3.443-0.491c0.863-0.445,1.3-1.325,1.3-2.635
				c0-1.57-0.346-2.604-1.042-3.109c-0.604-0.444-1.84-0.664-3.701-0.664H92.914V41.93z"/>
			<path fill-rule="evenodd" clip-rule="evenodd" fill="#F2F2F2" d="M145.103,48.809h7.485c-0.059,2.945-1.588,4.767-4.588,5.458
				c-1.76,0.407-4.626,0.608-8.594,0.608c-3.694,0-6.508-0.157-8.445-0.472c-2.563-0.419-4.337-1.543-5.319-3.385
				c-0.666-1.247-0.997-3.003-0.997-5.258c0-2.861,0.487-5.006,1.47-6.426c1.211-1.75,3.332-2.754,6.368-2.991
				c1.567-0.124,3.704-0.187,6.384-0.187c3.502,0,5.734,0.063,6.688,0.187c2.66,0.356,4.537,1.234,5.652,2.648
				c0.922,1.168,1.381,3.12,1.381,5.837v1.984h-20.186v0.847c0,1.833,1.079,2.848,3.244,3.054c0.937,0.084,2.276,0.129,4.004,0.129
				c1.685,0,2.806-0.058,3.354-0.166C144.305,50.417,144.999,49.791,145.103,48.809L145.103,48.809z M145.162,43.248
				c-0.015-1.504-0.717-2.441-2.122-2.816c-0.604-0.162-2.083-0.245-4.417-0.245c-2.809,0-4.574,0.284-5.313,0.845
				c-0.605,0.468-0.909,1.099-0.909,1.913v0.304H145.162z"/>
			<path fill-rule="evenodd" clip-rule="evenodd" fill="#F2F2F2" d="M158.198,54.564v-18.1h7.402v4.212
				c0.503-1.673,1.353-2.837,2.536-3.481c1.411-0.769,3.76-1.157,7.041-1.157c4.471,0,7.552,0.86,9.243,2.578
				c1.257,1.272,1.885,3.385,1.885,6.323v9.625h-7.625v-9.321c0-1.744-0.584-2.88-1.751-3.423c-0.792-0.368-2.32-0.55-4.581-0.55
				c-2.387,0-4.048,0.324-4.966,0.963c-1.042,0.737-1.558,2.119-1.558,4.161v8.169H158.198z"/>
			<path fill-rule="evenodd" clip-rule="evenodd" fill="#F2F2F2" d="M209.662,46.813h5.851v1.44c0,2.545-0.502,4.23-1.514,5.051
				c-1.374,1.125-3.93,1.688-7.684,1.688c-2.252,0-3.812-0.053-4.698-0.149c-1.862-0.219-3.297-0.685-4.31-1.408
				c-1.336-0.956-2.01-2.649-2.01-5.058v-7.377h-3.899v-4.535h3.899v-4.261h7.76v4.261h12.456v4.535h-12.456v5.962
				c0,1.215,0.191,2.041,0.583,2.487c0.458,0.516,1.36,0.774,2.697,0.774c1.278,0,2.143-0.154,2.593-0.471
				c0.488-0.369,0.732-1.104,0.732-2.202V46.813z"/>
			<path fill-rule="evenodd" clip-rule="evenodd" fill="#F2F2F2" d="M240.682,48.809h7.484c-0.057,2.945-1.588,4.767-4.587,5.458
				c-1.759,0.407-4.626,0.608-8.594,0.608c-3.694,0-6.508-0.157-8.444-0.472c-2.563-0.419-4.337-1.543-5.319-3.385
				c-0.667-1.247-0.998-3.003-0.998-5.258c0-2.861,0.487-5.006,1.47-6.426c1.211-1.75,3.331-2.754,6.367-2.991
				c1.568-0.124,3.704-0.187,6.384-0.187c3.503,0,5.736,0.063,6.688,0.187c2.66,0.356,4.537,1.234,5.651,2.648
				c0.924,1.168,1.381,3.12,1.381,5.837v1.984h-20.185v0.847c0,1.833,1.079,2.848,3.244,3.054c0.937,0.084,2.274,0.129,4.004,0.129
				c1.684,0,2.806-0.058,3.354-0.166C239.885,50.417,240.58,49.791,240.682,48.809L240.682,48.809z M240.742,43.248
				c-0.016-1.504-0.717-2.441-2.122-2.816c-0.604-0.162-2.082-0.245-4.417-0.245c-2.809,0-4.573,0.284-5.312,0.845
				c-0.606,0.468-0.91,1.099-0.91,1.913v0.304H240.742z"/>
			<path fill-rule="evenodd" clip-rule="evenodd" fill="#F2F2F2" d="M252.758,48.983h8.053c0.037,1.001,1.005,1.615,2.897,1.841
				c0.317,0.038,1.691,0.057,4.114,0.057c1.774,0,2.933-0.039,3.481-0.11c1.648-0.225,2.468-0.742,2.468-1.55
				c0-0.833-0.739-1.304-2.21-1.402c-0.731-0.083-2.061-0.129-3.974-0.129h-3.79c-3.289,0-5.719-0.226-7.293-0.678
				c-2.351-0.685-3.525-2.293-3.525-4.832c0-2.957,1.301-4.759,3.894-5.406c1.995-0.491,5.409-0.737,10.241-0.737
				c5.712,0,9.383,0.389,11.017,1.157c1.471,0.697,2.253,2.118,2.358,4.269h-8.003c-0.117-0.671-0.887-1.086-2.313-1.239
				c-0.349-0.027-1.354-0.047-3.007-0.047c-1.833,0-3.029,0.034-3.59,0.097c-1.804,0.208-2.706,0.686-2.706,1.448
				c0,0.697,0.703,1.131,2.099,1.291c0.214,0.027,1.19,0.04,2.919,0.04h5.365c3.478,0,5.858,0.238,7.142,0.717
				c2.122,0.795,3.178,2.461,3.178,4.993c0,1.744-0.451,3.056-1.345,3.947c-0.893,0.891-2.334,1.492-4.314,1.808
				c-1.988,0.317-5.26,0.473-9.819,0.473c-2.771,0-4.543-0.027-5.328-0.08c-2.253-0.142-3.967-0.477-5.149-1.02
				C253.755,53.046,252.8,51.405,252.758,48.983z"/>
			<path fill-rule="evenodd" clip-rule="evenodd" fill="#F2F2F2" d="M303.638,46.813h5.852v1.44c0,2.545-0.502,4.23-1.515,5.051
				c-1.375,1.125-3.931,1.688-7.685,1.688c-2.253,0-3.812-0.053-4.698-0.149c-1.862-0.219-3.297-0.685-4.309-1.408
				c-1.336-0.956-2.01-2.649-2.01-5.058v-7.377h-3.901v-4.535h3.901v-4.261h7.759v4.261h12.457v4.535h-12.457v5.962
				c0,1.215,0.191,2.041,0.584,2.487c0.457,0.516,1.358,0.774,2.697,0.774c1.278,0,2.142-0.154,2.593-0.471
				c0.488-0.369,0.731-1.104,0.731-2.202V46.813z"/>
			<rect x="313.553" y="41.93" fill-rule="evenodd" clip-rule="evenodd" fill="#F2F2F2" width="15.347" height="6.587"/>
			<polygon fill-rule="evenodd" clip-rule="evenodd" fill="#F2F2F2" points="343.264,54.564 343.264,35.109 330.098,35.109 
				330.098,28.715 365.422,28.715 365.422,35.109 352.263,35.109 352.263,54.564 			"/>
			<path fill-rule="evenodd" clip-rule="evenodd" fill="#F2F2F2" d="M378.229,36.039c3.71,0,6.688,0.168,8.92,0.511
				c2.644,0.405,4.372,1.409,5.194,3.017c0.508,0.982,0.759,2.803,0.759,5.458c0,3.215-0.28,5.379-0.841,6.476
				c-0.85,1.667-2.993,2.74-6.428,3.204c-1.42,0.188-4.064,0.286-7.942,0.286c-6.163,0-10.13-0.596-11.89-1.783
				c-1.152-0.782-1.891-1.979-2.209-3.579c-0.14-0.723-0.213-2.125-0.213-4.212c0-3.028,0.37-5.114,1.101-6.251
				c0.94-1.44,3.014-2.383,6.214-2.822C372.362,36.143,374.816,36.039,378.229,36.039L378.229,36.039z M378.185,40.961
				c-2.785,0-4.582,0.2-5.393,0.607c-1.057,0.537-1.589,1.834-1.589,3.901c0,1.066,0.052,1.802,0.154,2.221
				c0.199,0.827,0.65,1.421,1.346,1.79c0.798,0.42,2.674,0.626,5.636,0.626c3.104,0,5.041-0.232,5.808-0.704
				c0.887-0.543,1.331-1.809,1.331-3.785c0-1.163-0.066-1.971-0.2-2.416c-0.332-1.137-1.308-1.841-2.933-2.105
				C381.82,41.005,380.438,40.961,378.185,40.961z"/>
			<path fill-rule="evenodd" clip-rule="evenodd" fill="#F2F2F2" d="M412.5,36.039c3.71,0,6.687,0.168,8.919,0.511
				c2.644,0.405,4.373,1.408,5.194,3.016c0.509,0.982,0.76,2.804,0.76,5.459c0,3.215-0.281,5.379-0.842,6.476
				c-0.85,1.667-2.991,2.74-6.427,3.204c-1.42,0.187-4.064,0.285-7.943,0.285c-6.164,0-10.13-0.595-11.889-1.782
				c-1.153-0.782-1.892-1.979-2.21-3.579c-0.14-0.723-0.214-2.125-0.214-4.212c0-3.028,0.369-5.114,1.1-6.251
				c0.94-1.44,3.015-2.383,6.215-2.822C406.634,36.142,409.087,36.039,412.5,36.039L412.5,36.039z M412.457,40.961
				c-2.786,0-4.583,0.199-5.394,0.607c-1.057,0.537-1.588,1.834-1.588,3.901c0,1.066,0.051,1.802,0.155,2.221
				c0.199,0.827,0.649,1.421,1.345,1.79c0.797,0.42,2.673,0.626,5.636,0.626c3.104,0,5.04-0.233,5.807-0.704
				c0.887-0.543,1.331-1.809,1.331-3.785c0-1.164-0.066-1.971-0.2-2.416c-0.332-1.137-1.307-1.841-2.932-2.105
				C416.09,41.005,414.708,40.961,412.457,40.961z"/>
			<rect x="433.008" y="28.715" fill-rule="evenodd" clip-rule="evenodd" fill="#F2F2F2" width="7.625" height="25.849"/>
			<path fill-rule="evenodd" clip-rule="evenodd" fill="#F2F2F2" d="M446.123,48.983h8.053c0.037,1.001,1.005,1.615,2.896,1.841
				c0.318,0.038,1.693,0.057,4.116,0.057c1.774,0,2.934-0.039,3.479-0.109c1.65-0.225,2.469-0.742,2.469-1.55
				c0-0.833-0.739-1.304-2.209-1.402c-0.732-0.083-2.061-0.129-3.975-0.129h-3.791c-3.288,0-5.717-0.226-7.292-0.678
				c-2.35-0.685-3.525-2.293-3.525-4.832c0-2.957,1.301-4.759,3.894-5.406c1.995-0.491,5.409-0.737,10.24-0.737
				c5.713,0,9.384,0.389,11.018,1.157c1.47,0.697,2.252,2.118,2.356,4.269h-8.003c-0.117-0.672-0.886-1.086-2.311-1.239
				c-0.349-0.027-1.354-0.047-3.008-0.047c-1.833,0-3.03,0.034-3.591,0.097c-1.803,0.208-2.706,0.686-2.706,1.448
				c0,0.697,0.703,1.131,2.099,1.291c0.214,0.027,1.19,0.04,2.919,0.04h5.365c3.478,0,5.858,0.239,7.144,0.717
				c2.121,0.795,3.177,2.461,3.177,4.993c0,1.744-0.451,3.056-1.346,3.947c-0.894,0.891-2.333,1.492-4.315,1.808
				c-1.987,0.316-5.259,0.473-9.819,0.473c-2.771,0-4.542-0.026-5.327-0.079c-2.252-0.143-3.967-0.477-5.149-1.02
				C447.12,53.046,446.166,51.405,446.123,48.983z"/>
			<path fill-rule="evenodd" clip-rule="evenodd" fill="#F89406" d="M413.578,65.376v3.604h-4.411v-3.604H413.578L413.578,65.376z
				 M430.67,63.39h-3.883c-0.062-0.598-0.499-0.972-1.3-1.124c-0.295-0.058-0.974-0.087-2.04-0.087
				c-1.163,0-1.939,0.087-2.331,0.265c-0.621,0.278-0.932,0.946-0.932,2.006c0,1.042,0.318,1.713,0.955,2.018
				c0.346,0.165,1.17,0.245,2.471,0.245c1.036,0,1.71-0.035,2.027-0.104c0.755-0.164,1.164-0.549,1.238-1.158h3.913
				c-0.021,1.669-0.769,2.76-2.24,3.27c-0.864,0.301-2.456,0.452-4.773,0.452c-3.014,0-4.989-0.306-5.92-0.917
				c-0.988-0.651-1.481-1.898-1.481-3.739c0-2.058,0.556-3.398,1.676-4.024c0.925-0.516,2.771-0.775,5.542-0.775
				c1.625,0,2.801,0.05,3.529,0.152c1.513,0.217,2.511,0.668,2.987,1.356C430.463,61.74,430.648,62.459,430.67,63.39L430.67,63.39z
				 M440.475,59.718c1.855,0,3.344,0.084,4.459,0.255c1.324,0.204,2.188,0.703,2.597,1.508c0.255,0.491,0.38,1.402,0.38,2.729
				c0,1.609-0.141,2.691-0.42,3.239c-0.423,0.834-1.496,1.369-3.212,1.603c-0.712,0.093-2.033,0.142-3.973,0.142
				c-3.081,0-5.066-0.296-5.944-0.892c-0.576-0.391-0.944-0.988-1.104-1.788c-0.07-0.363-0.107-1.063-0.107-2.106
				c0-1.514,0.185-2.557,0.551-3.126c0.469-0.72,1.506-1.192,3.105-1.411C437.542,59.769,438.768,59.718,440.475,59.718
				L440.475,59.718z M440.453,62.179c-1.393,0-2.29,0.101-2.698,0.304c-0.527,0.267-0.794,0.916-0.794,1.949
				c0,0.533,0.026,0.9,0.077,1.111c0.1,0.413,0.326,0.71,0.674,0.896c0.399,0.209,1.336,0.312,2.819,0.312
				c1.551,0,2.519-0.116,2.903-0.353c0.443-0.271,0.666-0.904,0.666-1.892c0-0.581-0.035-0.985-0.101-1.207
				c-0.165-0.569-0.654-0.922-1.465-1.054C442.27,62.201,441.58,62.179,440.453,62.179L440.453,62.179z M450.727,68.98v-9.049h3.701
				v1.851c0.304-0.837,0.869-1.413,1.699-1.721c0.606-0.23,1.496-0.343,2.676-0.343c2.637,0,4.26,0.702,4.856,2.099
				c0.26-0.849,0.84-1.434,1.741-1.756c0.643-0.23,1.555-0.343,2.741-0.343c1.872,0,3.254,0.291,4.134,0.872
				c1,0.662,1.503,1.789,1.503,3.38v5.01h-3.813v-4.754c0-0.781-0.248-1.307-0.747-1.578c-0.381-0.21-1.06-0.314-2.032-0.314
				c-1.126,0-1.897,0.143-2.316,0.426c-0.477,0.329-0.713,0.964-0.713,1.911v4.309h-3.812v-4.576c0-0.889-0.219-1.47-0.651-1.741
				c-0.344-0.219-1.055-0.329-2.138-0.329c-1.032,0-1.762,0.119-2.198,0.357c-0.548,0.305-0.823,0.876-0.823,1.713v4.576H450.727z"
				/>
		</g>
		<g>
			<path fill-rule="evenodd" clip-rule="evenodd" fill="#F89406" d="M2.904,18.354c10.367-1.348,21.396-4.047,30.303-9.58
				c6.86,4.265,22.736,8.348,22.736,8.348l0.91,0.181c1.224,0.172,0.831,0.109,0.831,0.109l5.221-5.221L71.7,3.396L56.508,11.12
				c-8.083-1.603-16.442-4.281-23.3-8.961C25.292,7.559,14.241,11.047,0.053,12.62c-0.025,0.908-0.042,5.007-0.049,5.928
				C0.986,18.503,1.953,18.422,2.904,18.354z"/>
			<g>
				<path fill-rule="evenodd" clip-rule="evenodd" fill="#F2F2F2" d="M12.688,65.239l-8.794,8.794l11.5-5.847
					c4.294,4.338,9.355,7.947,15.184,10.826c10.804-5.338,18.974-13.179,24.504-23.526l0.023-0.044
					c0.59-1.065,1.15-2.155,1.681-3.271l-0.115,0.115L45.357,63.6l-0.083,0.083c0.04,0.15,0.061,0.31,0.061,0.473
					c0,1.032-0.837,1.868-1.868,1.868s-1.867-0.836-1.867-1.868c0-1.03,0.836-1.867,1.867-1.867c0.206,0,0.404,0.034,0.59,0.096
					L58.68,47.762c1.415-3.671,2.537-7.577,3.367-11.721L33.703,64.384l-0.083,0.083c0.039,0.15,0.061,0.31,0.061,0.473
					c0,1.031-0.837,1.867-1.868,1.867c-1.031,0-1.867-0.836-1.867-1.867s0.836-1.867,1.867-1.867c0.206,0,0.404,0.033,0.589,0.095
					l30.198-30.198c0.5-3.089,0.845-6.301,1.037-9.638L33.623,53.346l-0.083,0.083c0.04,0.151,0.06,0.31,0.06,0.473
					c0,1.031-0.835,1.868-1.867,1.868c-1.032,0-1.868-0.837-1.868-1.868s0.836-1.867,1.868-1.867c0.206,0,0.404,0.034,0.589,0.096
					l31.434-31.435c0.071-2.137,0.08-4.32,0.029-6.555L12.688,65.239L12.688,65.239z M56.67,52.287
					c-0.128,0.279-0.259,0.558-0.392,0.832L56.67,52.287z"/>
			</g>
			<path fill-rule="evenodd" clip-rule="evenodd" fill="#2C6AA0" d="M0.004,18.548c-0.061,8.128,0.618,13.487,2.478,21.663
				l16.546-16.546l0.083-0.083c-0.039-0.151-0.061-0.31-0.061-0.474c0-1.029,0.836-1.866,1.868-1.866
				c1.031,0,1.867,0.837,1.867,1.866c0,1.031-0.836,1.868-1.867,1.868c-0.206,0-0.403-0.033-0.589-0.095L2.969,42.24
				c0.553,2.175,1.191,4.322,1.928,6.427l25.786-25.786l0.082-0.082c-0.04-0.151-0.062-0.31-0.062-0.474
				c0-1.03,0.837-1.867,1.868-1.867c1.032,0,1.868,0.837,1.868,1.867c0,1.032-0.836,1.868-1.868,1.868
				c-0.206,0-0.404-0.034-0.589-0.095L5.57,50.511c0.779,2.04,1.653,4.034,2.63,5.97l22.562-22.562l0.083-0.082
				c-0.039-0.151-0.06-0.311-0.06-0.474c0-1.031,0.835-1.867,1.868-1.867c1.031,0,1.867,0.836,1.867,1.867s-0.836,1.868-1.867,1.868
				c-0.207,0-0.405-0.034-0.589-0.096L9.068,58.13c0.918,1.684,1.917,3.317,3.006,4.892l45.611-45.61c0,0,0.393,0.063-0.831-0.109
				l-0.91-0.181c0,0-15.876-4.083-22.736-8.348c-8.907,5.533-30.303,9.58-30.303,9.58S0.987,18.503,0.004,18.548z"/>
		</g>
	</g>
</g>
<path fill="none" d="M9365.096-687"/>
<path fill="none" d="M-7017.904-687"/>
</svg>
